<svg xmlns="http://www.w3.org/2000/svg" xmlns:xlink="http://www.w3.org/1999/xlink" viewBox="0 0 83.35 190.22"><defs><style>.cls-1{isolation:isolate;}.cls-2{fill:url(#linear-gradient);}.cls-3{fill:url(#radial-gradient);}.cls-4{fill:url(#radial-gradient-2);}.cls-5{fill:url(#linear-gradient-2);}.cls-6,.cls-7{mix-blend-mode:screen;}.cls-6{fill:url(#linear-gradient-3);}.cls-7{fill:url(#linear-gradient-4);}.cls-8{fill:url(#radial-gradient-3);}.cls-9{fill:url(#linear-gradient-5);}.cls-10{fill:url(#radial-gradient-4);}.cls-11{fill:url(#linear-gradient-6);}.cls-12{fill:url(#linear-gradient-7);}.cls-13,.cls-21{mix-blend-mode:multiply;}.cls-13{fill:url(#linear-gradient-8);}.cls-14{fill:url(#linear-gradient-9);}.cls-15{fill:url(#linear-gradient-10);}.cls-16{fill:url(#linear-gradient-11);}.cls-17{fill:url(#linear-gradient-12);}.cls-18{fill:url(#linear-gradient-13);}.cls-19{fill:url(#linear-gradient-14);}.cls-20{fill:url(#linear-gradient-15);}.cls-22{fill:#b3b3b3;}.cls-23{fill:url(#linear-gradient-16);}</style><linearGradient id="linear-gradient" x1="41.95" y1="11.42" x2="41.95" y2="-26.85" gradientUnits="userSpaceOnUse"><stop offset="0.04" stop-color="#ca722a"/><stop offset="0.12" stop-color="#e4981f"/><stop offset="0.2" stop-color="#f9b517"/><stop offset="0.21" stop-color="#fcbd1b"/><stop offset="0.24" stop-color="#fec620"/><stop offset="0.28" stop-color="#ffc821"/><stop offset="0.38" stop-color="#feca20"/><stop offset="0.42" stop-color="#f9d11d"/><stop offset="0.43" stop-color="#f7d41c"/><stop offset="0.5" stop-color="#f6cf16"/><stop offset="0.79" stop-color="#f1c106"/><stop offset="1" stop-color="#f0bc00"/></linearGradient><radialGradient id="radial-gradient" cx="-233.43" cy="237.71" r="3.2" gradientTransform="matrix(-1, 0, 0, 0.76, -213.74, -176.76)" gradientUnits="userSpaceOnUse"><stop offset="0" stop-color="#f7f7f7"/><stop offset="1" stop-color="#dbdbdb"/></radialGradient><radialGradient id="radial-gradient-2" cx="-953.8" cy="237.71" r="3.2" gradientTransform="translate(1017.9 -176.76) scale(1 0.76)" xlink:href="#radial-gradient"/><linearGradient id="linear-gradient-2" x1="-255.93" y1="158.42" x2="-255.93" y2="146.01" gradientTransform="matrix(-1, 0, 0, 1, -213.74, -145.69)" gradientUnits="userSpaceOnUse"><stop offset="0" stop-color="#363b39"/><stop offset="1" stop-color="#1b1c1c"/></linearGradient><linearGradient id="linear-gradient-3" x1="-260.89" y1="-94.59" x2="-272.78" y2="-102.04" gradientTransform="translate(-213.74 -89.33) rotate(180)" gradientUnits="userSpaceOnUse"><stop offset="0" stop-color="#3b3b3b"/><stop offset="1"/></linearGradient><linearGradient id="linear-gradient-4" x1="-255.64" y1="157.35" x2="-255.64" y2="146.86" xlink:href="#linear-gradient-2"/><radialGradient id="radial-gradient-3" cx="-550.22" cy="158.54" r="3.01" gradientTransform="matrix(-1, 0, 0, 1, -470.98, -145.69)" gradientUnits="userSpaceOnUse"><stop offset="0" stop-color="#f7d41c"/><stop offset="0.33" stop-color="#e9b720"/><stop offset="1" stop-color="#ca722a"/></radialGradient><linearGradient id="linear-gradient-5" x1="-554.27" y1="159.22" x2="-546.45" y2="159.22" gradientTransform="matrix(-1, 0, 0, 1, -470.98, -145.69)" xlink:href="#linear-gradient-2"/><radialGradient id="radial-gradient-4" cx="-1269.68" cy="157.93" r="3.01" gradientTransform="translate(1273.8 -145.69)" xlink:href="#radial-gradient-3"/><linearGradient id="linear-gradient-6" x1="-1273.73" y1="158.62" x2="-1265.91" y2="158.62" gradientTransform="translate(1273.8 -145.69)" xlink:href="#linear-gradient-2"/><linearGradient id="linear-gradient-7" x1="8.87" y1="100.72" x2="74.82" y2="100.72" gradientUnits="userSpaceOnUse"><stop offset="0.04" stop-color="#ca722a"/><stop offset="0.13" stop-color="#e4981f"/><stop offset="0.22" stop-color="#f9b517"/><stop offset="0.26" stop-color="#fcbd1b"/><stop offset="0.34" stop-color="#fec620"/><stop offset="0.47" stop-color="#ffc821"/><stop offset="0.76" stop-color="#feca20"/><stop offset="0.88" stop-color="#f9d11d"/><stop offset="0.91" stop-color="#f7d41c"/><stop offset="0.92" stop-color="#f6cf16"/><stop offset="0.96" stop-color="#f1c106"/><stop offset="1" stop-color="#f0bc00"/></linearGradient><linearGradient id="linear-gradient-8" x1="-287.02" y1="246.65" x2="-283.22" y2="246.65" gradientTransform="matrix(-1, 0, 0, 1, -213.74, -145.69)" gradientUnits="userSpaceOnUse"><stop offset="0" stop-color="#dbdbdb"/><stop offset="1" stop-color="#fff"/></linearGradient><linearGradient id="linear-gradient-9" x1="-287.45" y1="334.78" x2="-219.91" y2="334.78" gradientTransform="matrix(-1, 0, 0, 1, -213.74, -145.69)" gradientUnits="userSpaceOnUse"><stop offset="0" stop-color="#f29d0a"/><stop offset="0.01" stop-color="#f29c0a"/><stop offset="0.17" stop-color="#ea8805"/><stop offset="0.36" stop-color="#e47b02"/><stop offset="0.59" stop-color="#e17201"/><stop offset="1" stop-color="#e07000"/></linearGradient><linearGradient id="linear-gradient-10" x1="-265.44" y1="147.22" x2="-245.84" y2="147.22" xlink:href="#linear-gradient-2"/><linearGradient id="linear-gradient-11" x1="-284.63" y1="334.8" x2="-227.12" y2="334.8" xlink:href="#linear-gradient-2"/><linearGradient id="linear-gradient-12" x1="-233.94" y1="-76.08" x2="-255.59" y2="-89.64" xlink:href="#linear-gradient-3"/><linearGradient id="linear-gradient-13" x1="41.88" y1="185.28" x2="41.88" y2="196.27" gradientTransform="matrix(1, 0, 0, 1, 0, 0)" xlink:href="#linear-gradient-9"/><linearGradient id="linear-gradient-14" x1="12.04" y1="188.66" x2="29.15" y2="188.66" gradientTransform="matrix(1, 0, 0, 1, 0, 0)" xlink:href="#linear-gradient-2"/><linearGradient id="linear-gradient-15" x1="-1541.66" y1="188.66" x2="-1524.55" y2="188.66" gradientTransform="matrix(-1, 0, 0, 1, -1469.55, 0)" xlink:href="#linear-gradient-2"/><linearGradient id="linear-gradient-16" x1="42.05" y1="189.21" x2="42.05" y2="190.78" gradientTransform="matrix(1, 0, 0, 1, 0, 0)" xlink:href="#linear-gradient-2"/></defs><g class="cls-1"><g id="Layer_2" data-name="Layer 2"><g id="Layer_2-2" data-name="Layer 2"><path class="cls-2" d="M73.4,14.77s-4.54-14-5.59-14H16.09c-1.05,0-5.58,14-5.58,14Z"/><path class="cls-3" d="M15.35,3.87a1.17,1.17,0,0,0,1.29,1h6.1a1.17,1.17,0,0,0,1.29-1h0a1.17,1.17,0,0,0-1.29-1h-6.1a1.17,1.17,0,0,0-1.29,1Z"/><path class="cls-4" d="M68.44,3.87a1.17,1.17,0,0,1-1.29,1h-6.1a1.17,1.17,0,0,1-1.29-1h0a1.17,1.17,0,0,1,1.29-1h6.1a1.17,1.17,0,0,1,1.29,1Z"/><path class="cls-5" d="M15.1,9A115.27,115.27,0,0,1,68.69,9c3,1.73,2.12,3.46,3.71,5.19a4.46,4.46,0,0,0-.2.55C62.14,12.21,52,13.35,41.89,13.35c-9.87,0-19.74-1.08-29.56,1.21A5,5,0,0,0,12,13.38C12.8,11.91,12.55,10.45,15.1,9Z"/><path class="cls-6" d="M44.41,13.33c9.29-.14,18.56-.91,27.79,1.4a4.46,4.46,0,0,1,.2-.55c-1.59-1.73-.69-3.46-3.71-5.19A117.85,117.85,0,0,0,54.17,6.5,40.32,40.32,0,0,1,44.41,13.33Z"/><path class="cls-7" d="M41.26,5.83h1.27v7.76H41.26Z"/><path d="M76.48,13.24a.23.23,0,0,1,.17.07.23.23,0,0,1,0,.33L72.9,17.52a.23.23,0,0,1-.33,0,.24.24,0,0,1,0-.34l3.75-3.88A.28.28,0,0,1,76.48,13.24Z"/><path d="M75.29,11.76a.47.47,0,0,1,.4.22.48.48,0,0,1-.14.66l-3.92,2.48A.46.46,0,0,1,71,15a.48.48,0,0,1,.14-.66L75,11.83A.45.45,0,0,1,75.29,11.76Z"/><path class="cls-8" d="M75.13,11.73c0,.61.49,2.23,1.11,2.23H82c1.85,0,1.45-2,1.12-2.23H75.13Z"/><path class="cls-9" d="M83.28,13.1a1,1,0,0,1-.84.86h-6.2c-.3,0-.58-.39-.78-.86Z"/><path d="M6.87,12.64a.23.23,0,0,1,.17.07l3.75,3.88a.24.24,0,0,1,0,.33.24.24,0,0,1-.34,0L6.7,13a.24.24,0,0,1,.17-.4Z"/><path d="M8.06,11.16a.48.48,0,0,1,.26.07l3.91,2.49a.48.48,0,0,1,.14.66.47.47,0,0,1-.65.14L7.81,12a.46.46,0,0,1-.15-.65A.45.45,0,0,1,8.06,11.16Z"/><path class="cls-10" d="M8.23,11.13c0,.61-.5,2.22-1.12,2.22H1.4c-1.85,0-1.45-2-1.11-2.22H8.23Z"/><path class="cls-11" d="M.07,12.5a1,1,0,0,0,.85.85H7.11c.3,0,.58-.39.78-.85Z"/><path class="cls-12" d="M10.51,14.77c0-1.58,14.05-2,31.39-2s31.38.47,31.38,2V188c0,.92-62.77,1.11-62.77,0Z"/><path class="cls-13" d="M69.48,13.59c2.42.3,3.8.68,3.8,1.18V188c0,.14-1.41.26-3.8.37Z"/><polygon class="cls-14" points="12.95 190.22 70.99 190.22 73.28 187.96 10.51 187.96 12.95 190.22"/><polygon class="cls-15" points="32.57 0.76 51.22 0.76 51.69 2.3 32.09 2.3 32.57 0.76"/><polygon class="cls-16" points="14.31 189.5 70.02 189.5 70.89 188.72 13.38 188.72 14.31 189.5"/><rect class="cls-17" x="16.13" width="51.68" height="0.79"/><path class="cls-18" d="M10.61,188.13A4.16,4.16,0,0,0,14,189.87H70.14a4.12,4.12,0,0,0,3-1.3C69.3,186.51,56.55,185,41.4,185,27.34,185,15.34,186.3,10.61,188.13Z"/><path class="cls-19" d="M28.92,188.23c-.12-.91-3.94-1-8.51-.26L12,189.37a4.07,4.07,0,0,0,1.93.5H29.15S29.05,189.13,28.92,188.23Z"/><path class="cls-20" d="M55.22,188.23c.13-.91,3.94-1,8.52-.26l8.37,1.4a4.08,4.08,0,0,1-1.94.5H55S55.09,189.13,55.22,188.23Z"/><g class="cls-21"><path class="cls-22" d="M73,188.83c-3.89-2.08-16.89-3.54-31.61-3.54-13.55,0-25.88,1.26-30.68,3.12l-.21-.56c4.94-1.92,17.06-3.16,30.89-3.16,14.8,0,27.91,1.49,31.88,3.61Z"/></g><rect class="cls-23" x="31.96" y="189.17" width="20.19" height="0.7"/></g></g></g></svg>